<?xml version="1.0" encoding="utf-8"?>
<!-- Svg Vector Icons : http://www.onlinewebfonts.com/icon -->
<!DOCTYPE svg PUBLIC "-//W3C//DTD SVG 1.1//EN" "http://www.w3.org/Graphics/SVG/1.1/DTD/svg11.dtd">
<svg version="1.1" xmlns="http://www.w3.org/2000/svg" xmlns:xlink="http://www.w3.org/1999/xlink" x="0px" y="0px" viewBox="0 0 1000 1000" enable-background="new 0 0 1000 1000" xml:space="preserve">
<metadata> Svg Vector Icons : http://www.onlinewebfonts.com/icon </metadata>
<g><path d="M10,69.3v861.5c0,32.7,26.5,59.3,59.3,59.3h861.5c32.7,0,59.3-26.5,59.3-59.3V69.3c0-32.8-26.5-59.3-59.3-59.3H69.3C36.5,10,10,36.5,10,69.3L10,69.3z M879.2,899.9H120.8c-12,0-21.7-9.8-21.7-22V254.7c0-12.1,9.7-22,21.7-22h758.4c12,0,21.7,9.8,21.7,22v623.3C900.9,890.1,891.2,899.9,879.2,899.9z M243.1,624.6c-12.5,12-32.9,12-45.5,0s-12.5-31.5,0-43.5l72.9-69.8c6.6-6.3,6.6-16.5,0-22.8l-72.9-69.7c-12.5-12-12.5-31.5,0-43.5c12.5-12,32.9-12,45.5,0l118.4,113.2c6.5,6.3,6.5,16.5,0,22.8L243.1,624.6z M679.3,500c0,24.6-13.4,44.5-29.8,44.5H485.3c-16.5,0-29.8-20-29.8-44.5c0-24.6,13.3-44.5,29.8-44.5h164.2C665.9,455.5,679.3,475.4,679.3,500z"/></g>
</svg>