<?xml version="1.0" standalone="no"?>
<!DOCTYPE svg PUBLIC "-//W3C//DTD SVG 20010904//EN"
 "http://www.w3.org/TR/2001/REC-SVG-20010904/DTD/svg10.dtd">
<svg version="1.0" xmlns="http://www.w3.org/2000/svg"
 width="700.000000pt" height="700.000000pt" viewBox="0 0 700.000000 700.000000"
 preserveAspectRatio="xMidYMid meet">
<metadata>
Created by potrace 1.11, written by Peter Selinger 2001-2013
</metadata>
<g transform="translate(0.000000,700.000000) scale(0.100000,-0.100000)"
fill="#000000" stroke="none">
<path d="M359 6907 c-139 -47 -208 -118 -273 -281 -14 -34 -16 -350 -13 -3135
l2 -3096 24 -58 c46 -116 147 -209 265 -246 60 -19 117 -20 3137 -20 3051 -1
3077 -1 3134 19 151 52 247 154 282 300 19 82 19 6152 -1 6225 -40 150 -143
254 -295 299 -49 14 -351 16 -3125 16 l-3071 -1 -66 -22z m5855 -1551 c18 -8
46 -31 62 -52 l29 -37 1 -2220 0 -2220 -20 -41 c-12 -22 -34 -49 -49 -60 l-28
-21 -2689 -3 c-2138 -2 -2696 0 -2726 10 -21 8 -50 29 -68 51 l-31 39 -1 2216
c0 1408 3 2228 9 2247 13 39 44 74 82 91 46 20 5380 20 5429 0z"/>
<path d="M1485 4426 c-129 -35 -197 -160 -151 -280 18 -48 55 -86 440 -451
120 -113 154 -155 151 -185 -1 -8 -3 -25 -3 -38 -2 -25 -20 -44 -321 -332
-113 -107 -213 -204 -223 -215 -76 -79 -76 -208 0 -288 58 -61 139 -83 224
-61 60 15 68 22 273 219 94 89 190 182 215 205 83 78 423 405 441 424 27 28
37 67 27 103 -9 33 -21 47 -189 208 -58 55 -190 182 -294 281 -105 100 -235
225 -290 278 -136 130 -201 159 -300 132z"/>
<path d="M3340 3799 c-157 -63 -201 -389 -73 -538 63 -75 26 -71 707 -71 l611
0 39 23 c169 103 171 461 3 571 l-41 26 -611 -1 c-380 0 -619 -4 -635 -10z"/>
</g>
</svg>
