<?xml version="1.0" standalone="no"?>
<!DOCTYPE svg PUBLIC "-//W3C//DTD SVG 20010904//EN"
 "http://www.w3.org/TR/2001/REC-SVG-20010904/DTD/svg10.dtd">
<svg version="1.0" xmlns="http://www.w3.org/2000/svg"
 width="128.000000pt" height="128.000000pt" viewBox="0 0 128.000000 128.000000"
 preserveAspectRatio="xMidYMid meet">
<metadata>
Created by potrace 1.11, written by Peter Selinger 2001-2013
</metadata>
<g transform="translate(0.000000,128.000000) scale(0.100000,-0.100000)"
fill="#000000" stroke="none">
<path d="M354 877 c-2 -7 -3 -98 -2 -202 l3 -190 284 -3 c221 -2 286 1 293 10
9 15 11 359 2 382 -5 14 -40 16 -290 16 -222 0 -286 -3 -290 -13z m536 -182
l0 -145 -245 0 -245 0 0 145 0 145 245 0 245 0 0 -145z"/>
<path d="M583 713 c15 -16 15 -18 0 -35 -14 -15 -14 -18 -1 -18 8 0 22 8 32
18 15 18 15 20 -2 35 -26 23 -52 23 -29 0z"/>
<path d="M652 682 c-25 -8 -11 -22 23 -22 19 0 35 4 35 9 0 10 -40 19 -58 13z"/>
<path d="M553 440 c-5 -17 -14 -20 -63 -20 -39 0 -62 -5 -70 -15 -11 -13 14
-15 220 -15 181 0 231 3 228 13 -3 7 -29 13 -71 15 -59 3 -67 5 -67 22 0 18
-7 20 -86 20 -77 0 -86 -2 -91 -20z"/>
</g>
</svg>
